<svg xmlns="http://www.w3.org/2000/svg" viewBox="0 0 420 200" role="img" aria-labelledby="title"><title id="title">Evidence is verified before authorizing an action</title><style>rect,path,circle{fill:none;stroke:#8b4a43;stroke-width:1.1}.label{font:13px Arial,sans-serif;fill:#444a42;text-anchor:middle}.icon path,.icon circle{stroke-width:1.4}</style><rect x="14" y="58" width="103" height="84"/><rect x="160" y="58" width="103" height="84" stroke-dasharray="4 4"/><rect x="306" y="58" width="100" height="84"/><path d="M117 100h37m-5-5 5 5-5 5M263 100h37m-5-5 5 5-5 5"/>
 <g class="icon"><path d="M55 76h15l7 7v19H55zM70 76v8h7M59 89h12m-12 6h12"/><circle cx="207" cy="86" r="10"/><path d="m214 94 9 9M350 77l13 5v10q0 12-13 17-13-5-13-17V82zM343 92l5 5 9-10"/></g><g class="label"><text x="66" y="125">Evidence</text><text x="211" y="125">Verify</text><text x="356" y="125">Authorize</text></g></svg>